<svg viewBox="0 0 1024 1024" width="16" height="16" version="1.1" xmlns="http://www.w3.org/2000/svg">
    <path d="M512 955.6c-118.4 0-229.8-46.2-313.6-130-83.8-83.8-130-195.2-130-313.6s46.2-229.8 130-313.6 195.2-130 313.6-130 229.8 46.2 313.6 130c83.8 83.8 130 195.2 130 313.6s-46.2 229.8-130 313.6c-83.8 83.8-195.2 130-313.6 130z m0-827.2c-211.6 0-383.6 172-383.6 383.6s172 383.6 383.6 383.6 383.6-172 383.6-383.6S723.6 128.4 512 128.4z m212.6 384.6c0-16.6-13.4-30-30-30H329.4c-16.6 0-30 13.4-30 30s13.4 30 30 30h365c16.6 0 30.2-13.4 30.2-30z"
          fill="#ced0d6"/>
</svg>